@startuml
hide circle
skinparam classBackgroundColor #Business
skinparam linetype ortho
skinparam Shadowing True
skinparam TitleFontSize 72pt

title Horizon Research Project (HRP) \n Entity Relationship Diagram \n Version 25.7.31

entity "Basic.EducationLevel" as educationLevel #LightPink{
  *Id : bigint(19) <<serial>>
  --
  *Title : varchar(200)
  *Code : varchar(20) <<unique>>
  Description : varchar(4000)
  *IsActive : boolean <<default: true>>
  *IsDeleted : boolean <<default: false>>
  *CreateDate : timestamp <<default: now()>>
  *CreatorId : bigint(19)
  ModifyDate : timestamp
  ModifierId : bigint(19)
}

entity "Basic.Priority" as priority #LightPink{
  *Id : bigint(19) <<serial>>
  --
  *Title : varchar(200)
  *Code : varchar(20) <<unique>>
  *Ordering : integer
  *Color : varchar(7)
  Description : varchar(4000)
  *IsActive : boolean <<default: true>>
  *IsDeleted : boolean <<default: false>>
  *CreateDate : timestamp <<default: now()>>
  *CreatorId : bigint(19)
  ModifyDate : timestamp
  ModifierId : bigint(19)
}

entity "Basic.IssueType" as issueType #LightPink{
  *Id : bigint(19) <<serial>>
  --
  *Title : varchar(200)
  *Code : varchar(20) <<unique>>
  *IconAddress : varchar(1000)
  *Color : varchar(7)
  Description : varchar(4000)
  *IsActive : boolean <<default: true>>
  *IsDeleted : boolean <<default: false>>
  *CreateDate : timestamp <<default: now()>>
  *CreatorId : bigint(19)
  ModifyDate : timestamp
  ModifierId : bigint(19)
}

entity "Basic.Status" as status #LightPink{
  *Id : bigint(19) <<serial>>
  --
  *Title : varchar(200)
  *Code : varchar(20) <<unique>>
  Description : varchar(4000)
  *Color : varchar(7)
  *StatusEffect : enum <<To Do, In Progress, Done>>
  *IsActive : boolean <<default: true>>
  *IsDeleted : boolean <<default: false>>
  *CreateDate : timestamp <<default: now()>>
  *CreatorId : bigint(19)
  ModifyDate : timestamp
  ModifierId : bigint(19)
}

entity "Basic.Resolvation" as resolvation #LightPink{
  *Id : bigint(19) <<serial>>
  --
  *Title : varchar(200)
  *Code : varchar(20) <<unique>>
  Description : varchar(4000)
  *Color : varchar(7)
  *IsResolved : boolean
  *IsActive : boolean <<default: true>>
  *IsDeleted : boolean <<default: false>>
  *CreateDate : timestamp <<default: now()>>
  *CreatorId : bigint(19)
  ModifyDate : timestamp
  ModifierId : bigint(19)
}

entity "Basic.MeetingType" as meetingType #LightPink{
  *Id : bigint(19) <<serial>>
  --
  *Title : varchar(200)
  *Code : varchar(20) <<unique>>
  Description : varchar(4000)
  *IsActive : boolean <<default: true>>
  *IsDeleted : boolean <<default: false>>
  *CreateDate : timestamp <<default: now()>>
  *CreatorId : bigint(19)
  ModifyDate : timestamp
  ModifierId : bigint(19)
}

entity "Basic.DocumentType" as documentType #LightPink{
  *Id : bigint(19) <<serial>>
  --
  *Title : varchar(200)
  *Code : varchar(20) <<unique>>
  Description : varchar(4000)
  *IsActive : boolean <<default: true>>
  *IsDeleted : boolean <<default: false>>
  *CreateDate : timestamp <<default: now()>>
  *CreatorId : bigint(19)
  ModifyDate : timestamp
  ModifierId : bigint(19)
}

entity "Basic.FileExtension" as fileExtension #LightPink{
  *Id : bigint(19) <<serial>>
  --
  *Title : varchar(200)
  *Code : varchar(20) <<unique>>
  Description : varchar(4000)
  *IsActive : boolean <<default: true>>
  *IsDeleted : boolean <<default: false>>
  *CreateDate : timestamp <<default: now()>>
  *CreatorId : bigint(19)
  ModifyDate : timestamp
  ModifierId : bigint(19)
}

entity "Basic.ContractType" as contractType #LightPink{
  *Id : bigint(19) <<serial>>
  --
  *Title : varchar(200)
  *Code : varchar(20) <<unique>>
  Description : varchar(4000)
  *IsActive : boolean <<default: true>>
  *IsDeleted : boolean <<default: false>>
  *CreateDate : timestamp <<default: now()>>
  *CreatorId : bigint(19)
  ModifyDate : timestamp
  ModifierId : bigint(19)
}

entity "Basic.TestApproval" as testApproval #LightPink{
  *Id : bigint(19) <<serial>>
  --
  *Title : varchar(200)
  *Code : varchar(20) <<unique>>
  *IsApproved : boolean
  *Color : varchar(10)
  Description : varchar(4000)
  *IsActive : boolean <<default: true>>
  *IsDeleted : boolean <<default: false>>
  *CreateDate : timestamp <<default: now()>>
  *CreatorId : bigint(19)
  ModifyDate : timestamp
  ModifierId : bigint(19)
}

entity "Basic.TestComplexityLevel" as testComplexityLevel #LightPink{
  *Id : bigint(19) <<serial>>
  --
  *Title : varchar(200)
  *Code : varchar(20) <<unique>>
  *ValueNumber : float
  Description : varchar(4000)
  *IsActive : boolean <<default: true>>
  *IsDeleted : boolean <<default: false>>
  *CreateDate : timestamp <<default: now()>>
  *CreatorId : bigint(19)
  ModifyDate : timestamp
  ModifierId : bigint(19)
}

entity "Basic.TimeUnit" as timeUnit #LightPink{
  *Id : bigint(19) <<serial>>
  --
  *Title : varchar(200)
  *Code : varchar(20) <<unique>>
  BasedOnMillisecond : bigint(19)
  Description : varchar(4000)
  *IsActive : boolean <<default: true>>
  *IsDeleted : boolean <<default: false>>
  *CreateDate : timestamp <<default: now()>>
  *CreatorId : bigint(19)
  ModifyDate : timestamp
  ModifierId : bigint(19)
}

entity "Basic.Currency" as currency #LightPink{
  *Id : bigint(19) <<serial>>
  --
  *Title : varchar(200)
  *Code : varchar(20) <<unique>>
  *Symbol : varchar(20) <<unique>>
  Description : varchar(4000)
  *IsActive : boolean <<default: true>>
  *IsDeleted : boolean <<default: false>>
  *CreateDate : timestamp <<default: now()>>
  *CreatorId : bigint(19)
  ModifyDate : timestamp
  ModifierId : bigint(19)
}

entity "UserManagement.Role" as role #Violet{
  *Id : bigint(19) <<serial>>
  --
  *Title : varchar(200)
  *Code : varchar(20) <<unique>>
  Description : varchar(4000)
  *IsActive : boolean <<default: true>>
  *IsDeleted : boolean <<default: false>>
  *CreateDate : timestamp <<default: now()>>
  *CreatorId : bigint(19)
  ModifyDate : timestamp
  ModifierId : bigint(19)
}

entity "UserManagement.Groups" as groups #Violet{
  *Id : bigint(19) <<serial>>
  --
  *Title : varchar(200)
  *Code : varchar(20) <<unique>>
  Description : varchar(4000)
  *IsActive : boolean <<default: true>>
  *IsDeleted : boolean <<default: false>>
  *CreateDate : timestamp <<default: now()>>
  *CreatorId : bigint(19)
  ModifyDate : timestamp
  ModifierId : bigint(19)
}

entity "UserManagement.Permission" as permission #Violet{
  *Id : bigint(19) <<serial>>
  --
  *Title : varchar(200)
  *Code : varchar(20) <<unique>>
  Description : varchar(4000)
  *IsActive : boolean <<default: true>>
  *IsDeleted : boolean <<default: false>>
  *CreateDate : timestamp <<default: now()>>
  *CreatorId : bigint(19)
  ModifyDate : timestamp
  ModifierId : bigint(19)
}

entity "UserManagement.Form" as form #Violet{
  *Id : bigint(19) <<serial>>
  --
  *Title : varchar(200)
  *Code : varchar(20) <<unique>>
  Description : varchar(4000)
  *IsActive : boolean <<default: true>>
  *IsDeleted : boolean <<default: false>>
  *CreateDate : timestamp <<default: now()>>
  *CreatorId : bigint(19)
  ModifyDate : timestamp
  ModifierId : bigint(19)
}

entity "UserManagement.FormPermission" as formPermission #Violet{
  *Id : bigint(19) <<serial>>
  --
  *FormId : bigint(19) <<FK>>
  *PermissionId : bigint(19) <<FK>>
  *IsActive : boolean <<default: true>>
  *IsDeleted : boolean <<default: false>>
  *CreateDate : timestamp <<default: now()>>
  *CreatorId : bigint(19)
  ModifyDate : timestamp
  ModifierId : bigint(19)
}

entity "UserManagement.RolePermission" as rolePermission #Violet{
  *Id : bigint(19) <<serial>>
  --
  *RoleId : integer(10) <<FK>>
  *FormPermissionId : integer(10) <<FK>>
  *ActiveFrom : datetime
  ActiveTo : datetime
  *IsActive : boolean <<default: true>>
  *IsDeleted : boolean <<default: false>>
  *CreateDate : timestamp <<default: now()>>
  *CreatorId : bigint(19)
  ModifyDate : timestamp
  ModifierId : bigint(19)
}

entity "UserManagement.GroupPermission" as groupPermission #Violet{
  *Id : bigint(19) <<serial>>
  --
  *GroupId : bigint(19) <<FK>>
  *FormPermissionId : bigint(19) <<FK>>
  *IsActive : boolean <<default: true>>
  *IsDeleted : boolean <<default: false>>
  *CreateDate : timestamp <<default: now()>>
  *CreatorId : bigint(19)
  ModifyDate : timestamp
  ModifierId : bigint(19)
}

entity "UserManagement.ProfilePermission" as profilePermission #Violet{
  *Id : bigint(19) <<serial>>
  --
  *ProfileId : bigint(19) <<FK>>
  *PermissionId : bigint(19) <<FK>>
  *IsActive : boolean <<default: true>>
  *IsDeleted : boolean <<default: false>>
  *CreateDate : timestamp <<default: now()>>
  *CreatorId : bigint(19)
  ModifyDate : timestamp
  ModifierId : bigint(19)
}

entity "UserManagement.Profile" as profile #Violet{
  *Id : bigint(19) <<serial>>
  --
  *FirstName : varchar(200)
  *LastName : varchar(200)
  *Gender : enum <<male, female>>
  *StaffNumber : varchar(20) <<unique>>
  *ActiveFrom : timestamp
  ActiveTo : timestamp
  PositionId : bigint(19) <<FK>>
  Avatar : text
  Birthday : date
  PhoneNumber : varchar(20)
  MobileNumber : varchar(20)
  EmailAddress : varchar(200)
  Address : varchar(1000)
  PostalCode : varchar(20)
  LastLogInDate : timestamp
  LogInCount : integer(10) <<default: 0>>
  WrongLogInCount : integer(10) <<default: 0>>
  *Username : varchar(200) <<unique>>
  *Pass : varchar(255)
  PassSalt : varchar(50)
  *IsActive : boolean <<default: true>>
  *IsDeleted : boolean <<default: false>>
  *CreateDate : timestamp <<default: now()>>
  *CreatorId : bigint(19)
  ModifyDate : timestamp
  ModifierId : bigint(19)
}

entity "UserManagement.ProfileRole" as profileRole #Violet{
  *Id : bigint(19) <<serial>>
  --
  *ProfileId : bigint(19) <<FK>>
  *RoleId : bigint(19) <<FK>>
  *IsActive : boolean <<default: true>>
  *IsDeleted : boolean <<default: false>>
  *CreateDate : timestamp <<default: now()>>
  *CreatorId : bigint(19)
  ModifyDate : timestamp
  ModifierId : bigint(19)
}

entity "UserManagement.ProfileGroup" as profileGroup #Violet{
  *Id : bigint(19) <<serial>>
  --
  *ProfileId : bigint(19) <<FK>>
  *GroupId : bigint(19) <<FK>>
  *IsActive : boolean <<default: true>>
  *IsDeleted : boolean <<default: false>>
  *CreateDate : timestamp <<default: now()>>
  *CreatorId : bigint(19)
  ModifyDate : timestamp
  ModifierId : bigint(19)
}

entity "HumanResource.Department" as department #Lavender{
  *Id : integer(10) <<serial>>
  --
  *Title : varchar(50)
  *Code : varchar(20) <<unique>>
  ParentId : integer(20) <<FK>>
  Description : varchar(4000)
  *IsActive : boolean <<default: true>>
  *IsDeleted : boolean <<default: false>>
  *CreateDate : timestamp <<default: now()>>
  *CreatorId : bigint(19)
  ModifyDate : timestamp
  ModifierId : bigint(19)
}

entity "HumanResource.Position" as position #Lavender{
  *Id : integer(10) <<serial>>
  --
  *Title : varchar(50)
  *Code : varchar(20) <<unique>>
  *DepartmentId : bigint(19) <<FK>>
  ParentId : bigint(19) <<FK>>
  Description : varchar(4000)
  *IsActive : boolean <<default: true>>
  *IsDeleted : boolean <<default: false>>
  *CreateDate : timestamp <<default: now()>>
  *CreatorId : bigint(19)
  ModifyDate : timestamp
  ModifierId : bigint(19)
}

entity "HumanResource.ProfileEducation" as profileEducation #Lavender{
  *Id : bigint(19) <<serial>>
  --
  *ProfileId : bigint(19) <<FK>>
  *EducatioLevelId : bigint(19) <<FK>>
  DocumentId : bigint(19) <<FK>>
  *Title : varchar(255)
  CollegeName : varchar(255)
  StartDate : date
  EndDate : date
  CertificateFileAddress : varchar(4000)
  Description : varchar(4000)
  *IsActive : boolean <<default: true>>
  *IsDeleted : boolean <<default: false>>
  *CreateDate : timestamp <<default: now()>>
  *CreatorId : bigint(19)
  ModifyDate : timestamp
  ModifierId : bigint(19)
}

entity "HumanResource.ProfileJobExperience" as profileJobExperience #Lavender{
  *Id : bigint(19) <<serial>>
  --
  *ProfileId : bigint(19) <<FK>>
  *JobTitle : varchar(200)
  *CompanyName : varchar(200)
  StartDate : date
  EndDate : date
  Description : varchar(4000)
  *IsActive : boolean <<default: true>>
  *IsDeleted : boolean <<default: false>>
  *CreateDate : timestamp <<default: now()>>
  *CreatorId : bigint(19)
  ModifyDate : timestamp
  ModifierId : bigint(19)
}

entity "HumanResource.ProfileCertificate" as profileCertificate #Lavender{
  *Id : bigint(19) <<serial>>
  --
  *ProfileId : bigint(19) <<FK>>
  *Title : varchar(200)
  *InstituteName : varchar(200)
  StartDate : date
  EndDate : date
  HasCertificate : boolean
  CertificateFileAddress : varchar(4000)
  Description : varchar(4000)
  *IsActive : boolean <<default: true>>
  *IsDeleted : boolean <<default: false>>
  *CreateDate : timestamp <<default: now()>>
  *CreatorId : bigint(19)
  ModifyDate : timestamp
  ModifierId : bigint(19)
}

entity "HumanResource.WorkingTimeTable" as workingTimeTable #Lavender{ 
  *Id : bigint(19) <<serial>>
  --
  *WorkingDay : enum <<Monday, Tuesday, Wednesday, Thursday, Friday, Saturday, Sunday>>
  *ContractTypeId : bigint(19) <<FK>>
  *StartTime : time
  *EndTime : time
  FloatingStartTime : time
  Description : varchar(4000)
  *IsActive : boolean <<default: true>>
  *IsDeleted : boolean <<default: false>>
  *CreateDate : timestamp <<default: now()>>
  *CreatorId : bigint(19)
  ModifyDate : timestamp
  ModifierId : bigint(19)
}

entity "HumanResource.Holidaies" as holidaies #Lavender{
  *Id : bigint(19) <<serial>>
  --
  *Title : varchar(255)
  *HolidayDate : date <<unique>> 
  *HolidayType : enum <<National, Government or Federal, Provincial or State, Organizational>> 
  Description : varchar(4000)
  *IsActive : boolean <<default: true>>
  *IsDeleted : boolean <<default: false>>
  *CreateDate : timestamp <<default: now()>>
  *CreatorId : bigint(19)
  ModifyDate : timestamp
  ModifierId : bigint(19)
}

entity "HumanResource.Attendance" as attendance #Lavender{
  *Id : bigint(19) <<serial>>
  --
  *ProfileId : bigint(19) <<FK>>
  *WorkingDate : date
  *EnteranceType : enum <<enter, exit>>
  *EnternaceTime : time
  *IsActive : boolean <<default: true>>
  *IsDeleted : boolean <<default: false>>
  *CreateDate : timestamp <<default: now()>>
  *CreatorId : bigint(19)
  ModifyDate : timestamp
  ModifierId : bigint(19)
}

entity "HumanResource.Leave" as leave #Lavender{
  *Id : bigint(19) <<serial>>
  --
  *ProfileId : bigint(19) <<FK>>
  LeaveType : enum <<fulltime, parttime>>
  *LeavingStartDate : date
  LeavingEndDate : date
  *LeavingStartTime : time
  *LeavingEndTime : time
  Description : varchar(4000)
  *IsActive : boolean <<default: true>>
  *IsDeleted : boolean <<default: false>>
  *CreateDate : timestamp <<default: now()>>
  *CreatorId : bigint(19)
  ModifyDate : timestamp
  ModifierId : bigint(19)
}

entity "HumanResource.WorkMission" as workMission #Lavender{
  *Id : bigint(19) <<serial>>
  --
  *ProfileId : bigint(19) <<FK>>
  *MissionStartDate : date
  MissionEndDate : date
  *MissionStartTime : time
  *MissionEndTime : time
  MissionLocation : varchar(255)
  Description : varchar(4000)
  *IsActive : boolean <<default: true>>
  *IsDeleted : boolean <<default: false>>
  *CreateDate : timestamp <<default: now()>>
  *CreatorId : bigint(19)
  ModifyDate : timestamp
  ModifierId : bigint(19)
}

entity "DocumentManagement.Document" as document #Gold{
  *Id : bigint(19) <<serial>>
  --
  *TableName : varchar(255)
  *TableId : bigint(19)
  *DocumentTypeId : bigint(19) <<FK>>
  *FileExtensionId : bigint(19) <<FK>>
  *FileAddress: varchar(4000)
  *IsActive : boolean <<default: true>>
  *IsDeleted : boolean <<default: false>>
  *CreateDate : timestamp <<default: now()>>
  *CreatorId : bigint(19)
  ModifyDate : timestamp
  ModifierId : bigint(19)
}

entity "DocumentManagement.ProjectWorkflowDocumentType" as projectWorkflowDocumentType #Gold{
  *Id : bigint(19) <<serial>>
  --
  *DocumentTypeId : bigint(19) <<FK>> <<composite unique>>
  *ProjectWorkflowId : bigint(19) <<FK>> <<composite unique>>
  *IsActive : boolean <<default: true>>
  *IsDeleted : boolean <<default: false>>
  *CreateDate : timestamp <<default: now()>>
  *CreatorId : bigint(19)
  ModifyDate : timestamp
  ModifierId : bigint(19)
}

entity "ProjectManagement.Project" as project #Orange{
  *Id : bigint(19) <<serial>>
  --
  *Code : varchar(20) <<unique>>
  *Title : varchar(200)
  Description : varchar(4000)
  StartDate : date
  EndDate : date
  *IsActive : boolean <<default: true>>
  *IsDeleted : boolean <<default: false>>
  *CreateDate : timestamp <<default: now()>>
  *CreatorId : bigint(19)
  ModifyDate : timestamp
  ModifierId : bigint(19)
}

entity "ProjectManagement.ProjectProfileMember" as projectProfileMember #Orange{
  *Id : bigint(19) <<serial>>
  --
  *ProjectId : bigint(19) <<FK>> <<composite unique>>
  *ProfileId : bigint(19) <<FK>> <<composite unique>>
  *IsProjectManager : boolean
  *IsActive : boolean <<default: true>>
  *IsDeleted : boolean <<default: false>>
  *CreateDate : timestamp <<default: now()>>
  *CreatorId : bigint(19)
  ModifyDate : timestamp
  ModifierId : bigint(19)
}

entity "ProjectManagement.ProjectGroupMember" as projectGroupMember #Orange{
  *Id : bigint(19) <<serial>>
  --
  *ProjectId : bigint(19) <<FK>> <<composite unique>>
  *GroupId : bigint(19) <<FK>> <<composite unique>>
  *IsActive : boolean <<default: true>>
  *IsDeleted : boolean <<default: false>>
  *CreateDate : timestamp <<default: now()>>
  *CreatorId : bigint(19)
  ModifyDate : timestamp
  ModifierId : bigint(19)
}

entity "ProjectManagement.ProjectRoleMember" as projectRoleMember #Orange{
  *Id : bigint(19) <<serial>>
  --
  *ProjectId : bigint(19) <<FK>> <<composite unique>>
  *RoleId : bigint(19) <<FK>> <<composite unique>>
  *IsActive : boolean <<default: true>>
  *IsDeleted : boolean <<default: false>>
  *CreateDate : timestamp <<default: now()>>
  *CreatorId : bigint(19)
  ModifyDate : timestamp
  ModifierId : bigint(19)
}

entity "ProjectManagement.ProjectDepartmentMember" as projectDepartmentMember #Orange{
  *Id : bigint(19) <<serial>>
  --
  *ProjectId : bigint(19) <<FK>> <<composite unique>>
  *DepartmentId : bigint(19) <<FK>> <<composite unique>>
  *IsActive : boolean <<default: true>>
  *IsDeleted : boolean <<default: false>>
  *CreateDate : timestamp <<default: now()>>
  *CreatorId : bigint(19)
  ModifyDate : timestamp
  ModifierId : bigint(19)
}

entity "ProjectManagement.ProjectWorkflow" as projectWorkflow #Orange{
  *Id : bigint(19) <<serial>>
  --
  *ProjectId : bigint(19) <<FK>>
  *Code : varchar(20) <<unique>>
  *Title : varchar(200)
  Description : varchar(4000)
  *IsActive : boolean <<default: true>>
  *IsDeleted : boolean <<default: false>>
  *CreateDate : timestamp <<default: now()>>
  *CreatorId : bigint(19)
  ModifyDate : timestamp
  ModifierId : bigint(19)
}

entity "ProjectManagement.ProjectWorkflowStatus" as projectWorkflowStatus #Orange{
  *Id : bigint(19) <<serial>>
  --
  *ProjectWorkflowId : bigint(19) <<FK>>
  *StatusId : bigint(19) <<FK>>
  *IsActive : boolean <<default: true>>
  *IsDeleted : boolean <<default: false>>
  *CreateDate : timestamp <<default: now()>>
  *CreatorId : bigint(19)
  ModifyDate : timestamp
  ModifierId : bigint(19)
}

entity "ProjectManagement.ProjectWorkflowResolvation" as projectWorkflowResolvation #Orange{
  *Id : bigint(19) <<serial>>
  --
  *ProjectWorkflowId : bigint(19) <<FK>>
  *ResolvationId : bigint(19) <<FK>>
  *IsActive : boolean <<default: true>>
  *IsDeleted : boolean <<default: false>>
  *CreateDate : timestamp <<default: now()>>
  *CreatorId : bigint(19)
  ModifyDate : timestamp
  ModifierId : bigint(19)
}

entity "ProjectManagement.ProjectWorkflowProgress" as projectWorkflowProgress #Orange{
  *Id : bigint(19) <<serial>>
  --
  *Title : varchar(255)
  StartProjectWorkflowStatusId : bigint(19) <<FK>>
  *IsFromStartPoint : boolean
  *CanBeStartedFromAnyStatus : boolean
  EndProjectWorkflowStatusId : bigint(19) <<FK>>
  *IsWorkflowEndPoint : boolean
  *IsActive : boolean <<default: true>>
  *IsDeleted : boolean <<default: false>>
  *CreateDate : timestamp <<default: now()>>
  *CreatorId : bigint(19)
  ModifyDate : timestamp
  ModifierId : bigint(19)
}

entity "ProjectManagement.Issue" as issue #Orange{
  *Id : bigint(19) <<serial>>
  --
  *ProjectId : bigint(19) <<FK>>
  AssigneeId : bigint(19) <<FK>>
  *Code : varchar(20) <<unique>>
  *Title : varchar(200)
  Description : varchar(4000)
  DueDate : date
  PriorityId : bigint(19) <<FK>>
  *IssueTypeId : bigint(19) <<FK>>
  *CuurentStatusId : bigint(19) <<FK>>
  *CurrentResolvationId : bigint(19) <<FK>>
  *IsActive : boolean <<default: true>>
  *IsDeleted : boolean <<default: false>>
  *CreateDate : timestamp <<default: now()>>
  *CreatorId : bigint(19)
  ModifyDate : timestamp
  ModifierId : bigint(19)
}

entity "ProjectManagement.IssueComment" as issueComment #Orange{
  *Id : bigint(19) <<serial>>
  --
  *IssueId : bigint(19) <<FK>>
  *CommentText : varchar(4000)
  *IsActive : boolean <<default: true>>
  *IsDeleted : boolean <<default: false>>
  *CreateDate : timestamp <<default: now()>>
  *CreatorId : bigint(19)
  ModifyDate : timestamp
  ModifierId : bigint(19)
}

entity "ProjectManagement.IssueAttachment" as issueAttachment #Orange{
  *Id : bigint(19) <<serial>>
  --
  *IssueId : bigint(19) <<FK>> <<composite unique>>
  *DocumentId : bigint(19) <<FK>> <<composite unique>>
  *IsActive : boolean <<default: true>>
  *IsDeleted : boolean <<default: false>>
  *CreateDate : timestamp <<default: now()>>
  *CreatorId : bigint(19)
  ModifyDate : timestamp
  ModifierId : bigint(19)
}

entity "ProjectManagement.ProjectRelease" as release #Orange{
  *Id : bigint(19) <<serial>>
  --
  *ProjectId : bigint(19) <<FK>>
  *VersionNumber : varchar(20) <<unique>>
  ReleaseDate : date
  Description : varchar(4000)
  *IsActive : boolean <<default: true>>
  *IsDeleted : boolean <<default: false>>
  *CreateDate : timestamp <<default: now()>>
  *CreatorId : bigint(19)
  ModifyDate : timestamp
  ModifierId : bigint(19)
}

entity "ProjectManagement.ProjectReleaseIssue" as releaseIssue #Orange{
  *Id : bigint(19) <<serial>>
  --
  *ProjectReleaseId : bigint(19) <<FK>> <<composite unique>>
  *IssueId : bigint(19) <<FK>> <<composite unique>>
  IsFinalized : boolean
  *IsActive : boolean <<default: true>>
  *IsDeleted : boolean <<default: false>>
  *CreateDate : timestamp <<default: now()>>
  *CreatorId : bigint(19)
  ModifyDate : timestamp
  ModifierId : bigint(19)
}

entity "ProjectManagement.WorkLog" as workLog #Orange{
  *Id : bigint(19) <<serial>>
  --
  *IssueId : bigint(19) <<FK>>
  *LogDate : date
  *StartWorkTime : time
  *WorkingDuration : float 
  *TimeUnitId : bigint(19) <<FK>>
  Description : varchar(4000)
  *IsActive : boolean <<default: true>>
  *IsDeleted : boolean <<default: false>>
  *CreateDate : timestamp <<default: now()>>
  *CreatorId : bigint(19)
  ModifyDate : timestamp
  ModifierId : bigint(19)
}

entity "DocumentManagement.WorkflowEligibleFileExtension" as workflowEligibleFileExtension #Gold{
  *Id : bigint(19) <<serial>>
  --
  *WorkflowId : bigint(19) <<FK>> <<composite unique>>
  *FileExtensionId : bigint(19) <<FK>> <<composite unique>>
  *MaxFileSizeForUpload : integer <<default: 5242880>>
  *IsActive : boolean <<default: true>>
  *IsDeleted : boolean <<default: false>>
  *CreateDate : timestamp <<default: now()>>
  *CreatorId : bigint(19)
  ModifyDate : timestamp
  ModifierId : bigint(19)
}

entity "ProjectManagement.IssueWorkflowHistory" as issueWorkflowHistory #Orange{
  *Id : bigint(19) <<serial>>
  --
  *IssueId : bigint(19) <<FK>>
  *StartStatusId : bigint(19) <<FK>>
  *EndStatusId : bigint(19) <<FK>>
  *ProjectWorkflowProgressId : bigint(19) <<FK>>
  ProjectWorkflowResolvationId : bigint(19) <<FK>>
  *IsActive : boolean <<default: true>>
  *IsDeleted : boolean <<default: false>>
  *CreateDate : timestamp <<default: now()>>
  *CreatorId : bigint(19)
  ModifyDate : timestamp
  ModifierId : bigint(19)
}

entity "ProjectManagement.ProjectMeeting" as projectMeeting #Orange{
  *Id : bigint(19) <<serial>>
  --
  *ProjectId : bigint(19) <<FK>>
  *MeetingTypeId : bigint(19) <<FK>>
  *MeetingDate : date
  *Title : varchar(255)
  *Location : varchar(255)
  MinutesDocumentId : bigint(19) <<FK>>
  Description : varchar(4000)
  ScheduleStartTime : time
  ScheduleEndTime : time
  ActualStartTime : time
  ActualEndTime : time
  *IsCanncelled : boolean <<default: false>>
  *IsActive : boolean <<default: true>>
  *IsDeleted : boolean <<default: false>>
  *CreateDate : timestamp <<default: now()>>
  *CreatorId : bigint(19)
  ModifyDate : timestamp
  ModifierId : bigint(19)
}

entity "ProjectManagement.MeetingInvitees" as meetingInvitees #Orange{
  *Id : bigint(19) <<serial>>
  --
  *ProjectMeetingId : bigint(19) <<FK>>
  *IsFromInsideCompnay : boolean
  ProfileId : bigint(19) <<FK>>
  InviteeFullName : varchar(255)
	InviteeCompanyName : varchar(255)
  IsAttanded : boolean
  *IsActive : boolean <<default: true>>
  *IsDeleted : boolean <<default: false>>
  *CreateDate : timestamp <<default: now()>>
  *CreatorId : bigint(19)
  ModifyDate : timestamp
  ModifierId : bigint(19)
}

entity "ProjectManagement.MeetingMinutes" as meetingMinutes #Orange{
  *Id : bigint(19) <<serial>>
  --
  *ProjectMeetingId : bigint(19) <<FK>>
  *Resolution : varchar(4000)
  ResponsibleDepartmentId : bigint(19) <<FK>>
  IssueId : bigint(19) <<FK>>
  DueDate : datetime
  *IsActive : boolean <<default: true>>
  *IsDeleted : boolean <<default: false>>
  *CreateDate : timestamp <<default: now()>>
  *CreatorId : bigint(19)
  ModifyDate : timestamp
  ModifierId : bigint(19)
}

entity "Finance.StaffContract" as staffContract #Salmon{
  *Id : bigint(19) <<serial>>
  --
  *ProfileId : bigint(19) <<FK>>
  *ContractTypeId : bigint(19) <<FK>>
  *StartDate : date
  *EndDate : date
  *Title : varchar(200)
  Description : varchar(4000)
  AutoRenewal : boolean
  *IsActive : boolean <<default: true>>
  *IsDeleted : boolean <<default: false>>
  *CreateDate : timestamp <<default: now()>>
  *CreatorId : bigint(19)
  ModifyDate : timestamp
  ModifierId : bigint(19)
}

entity "Finance.ContractSalaryItem" as contractSalaryItem #Salmon{
  *Id : bigint(19) <<serial>>
  --
  *StaffContractId : bigint(19) <<FK>>
  *Title : varchar(200)
  *Amount : numeric(22,2)
  *CurrencyId : bigint(19) <<FK>>
  Description : varchar(4000)
  *CalculationTimeUnitId : bigint(19) <<FK>>
  *IsActive : boolean <<default: true>>
  *IsDeleted : boolean <<default: false>>
  *CreateDate : timestamp <<default: now()>>
  *CreatorId : bigint(19)
  ModifyDate : timestamp
  ModifierId : bigint(19)
}

entity "Finance.ContractDeductionItem" as contractDeductionItem #Salmon{
  *Id : bigint(19) <<serial>>
  --
  *StaffContractId : bigint(19) <<FK>>
  *Title : varchar(200)
  *CalculationType : enum <<percentage, fixedAmount>>
  DeductionPercentage : numeric(3,2) <<from 0 until 100>>
  FixedAmount : numeric(22,2)
  FixedAmountCurrencyId : bigint(19) <<FK>>
  Description : varchar(4000)
  *CalculationTimeUnitId : bigint(19) <<FK>>
  *IsActive : boolean <<default: true>>
  *IsDeleted : boolean <<default: false>>
  *CreateDate : timestamp <<default: now()>>
  *CreatorId : bigint(19)
  ModifyDate : timestamp
  ModifierId : bigint(19)
}

entity "Finance.Supplier" as supplier #Salmon{
  *Id : bigint(19) <<serial>>
  --
  *Title : varchar(255)
  Description : varchar(4000)
  Address : varchar(4000)
  PhoneNumber : varchar(20)
  MobileNumber : varchar(20)
  Email : varchar(100)
  PostalCode : varchar(20)
  *IsActive : boolean <<default: true>>
  *IsDeleted : boolean <<default: false>>
  *CreateDate : timestamp <<default: now()>>
  *CreatorId : bigint(19)
  ModifyDate : timestamp
  ModifierId : bigint(19)
}

entity "Finance.CostReceipt" as costReceipt #Salmon{
  *Id : bigint(19) <<serial>>
  --
  *SupplierId : bigint(19) <<FK>>
  *DocumentId : bigint(19) <<FK>>
  *ReceiptDate : date
  *TotalAmount : numeric(22,2)
  *CurrencyId : bigint(19) <<FK>>
  Description : varchar(4000)
  *IsActive : boolean <<default: true>>
  *IsDeleted : boolean <<default: false>>
  *CreateDate : timestamp <<default: now()>>
  *CreatorId : bigint(19)
  ModifyDate : timestamp
  ModifierId : bigint(19)
}

entity "Finance.CostReceiptItem" as costReceiptItem #Salmon{
  *Id : bigint(19) <<serial>>
  --
  *CostReceiptId : bigint(19) <<FK>>
  *ItemTitle : varchar(255)
  *UnitAmount : numeric(22,2)
  *CurrencyId : bigint(19) <<FK>>
  *Quantity : float
  Description : varchar(4000)
  *IsActive : boolean <<default: true>>
  *IsDeleted : boolean <<default: false>>
  *CreateDate : timestamp <<default: now()>>
  *CreatorId : bigint(19)
  ModifyDate : timestamp
  ModifierId : bigint(19)
}

entity "Finance.ProjectDirectCostItem" as projectDirectCostItem #Salmon{
  *Id : bigint(19) <<serial>>
  --
  *ProjectId : bigint(19) <<FK>>
  *CostReceiptItemId : bigint(19) <<FK>>
  Description : varchar(4000)
  *IsActive : boolean <<default: true>>
  *IsDeleted : boolean <<default: false>>
  *CreateDate : timestamp <<default: now()>>
  *CreatorId : bigint(19)
  ModifyDate : timestamp
  ModifierId : bigint(19)
}

entity "Finance.CostPaymentReceipt" as costPaymentReceipt #Salmon{
  *Id : bigint(19) <<serial>>
  --
  *CostReceiptId : bigint(19) <<FK>>
  *DocumentId : bigint(19) <<FK>>
  *Amount : numeric(22,2)
  *CurrencyId : bigint(19) <<FK>>
  *PaymentDate : date
  Description : varchar(4000)
  *IsActive : boolean <<default: true>>
  *IsDeleted : boolean <<default: false>>
  *CreateDate : timestamp <<default: now()>>
  *CreatorId : bigint(19)
  ModifyDate : timestamp
  ModifierId : bigint(19)
}

entity "Finance.SalaryPaymentReceipt" as salaryPaymentReceipt #Salmon{
  *Id : bigint(19) <<serial>>
  --
  *StaffContractId : bigint(19) <<FK>>
  *DocumentId : bigint(19) <<FK>>
  *Amount : numeric(22,2)
  *CurrencyId : bigint(19) <<FK>>
  *PaymentDate : date
  Description : varchar(4000)
  *IsActive : boolean <<default: true>>
  *IsDeleted : boolean <<default: false>>
  *CreateDate : timestamp <<default: now()>>
  *CreatorId : bigint(19)
  ModifyDate : timestamp
  ModifierId : bigint(19)
}

entity "Finance.StaffAdditionalPaymentReceipt" as staffAdditionalPaymentReceipt #Salmon{
  *Id : bigint(19) <<serial>>
  --
  *ProfileId : bigint(19) <<FK>>
  *DocumentId : bigint(19) <<FK>>
  *Amount : numeric(22,2)
  *CurrencyId : bigint(19) <<FK>>
  *PaymentDate : date
  Description : varchar(4000)
  *IsActive : boolean <<default: true>>
  *IsDeleted : boolean <<default: false>>
  *CreateDate : timestamp <<default: now()>>
  *CreatorId : bigint(19)
  ModifyDate : timestamp
  ModifierId : bigint(19)
}

entity "Finance.Customer" as customer #Salmon{
  *Id : bigint(19) <<serial>>
  --
  *Title : varchar(255)
  Description : varchar(4000)
  Address : varchar(4000)
  PhoneNumber : varchar(20)
  MobileNumber : varchar(20)
  Email : varchar(100)
  PostalCode : varchar(20)
  *IsActive : boolean <<default: true>>
  *IsDeleted : boolean <<default: false>>
  *CreateDate : timestamp <<default: now()>>
  *CreatorId : bigint(19)
  ModifyDate : timestamp
  ModifierId : bigint(19)
}

entity "Finance.Contract" as contract #Salmon{
  *Id : bigint(19) <<serial>>
  --
  *CustomerId : bigint(19) <<FK>>
  *ProjectId : bigint(19) <<FK>>
  StartDate : date
  ScheduledEndDate : date
  RealEndDate : date
  IsDevelopmentContract : boolean
  IsSupportContract : boolean
  *TotalAmount : numeric(22,2)
  *CurrencyId : bigint(19) <<FK>>
  Description : varchar(4000)
  *IsActive : boolean <<default: true>>
  *IsDeleted : boolean <<default: false>>
  *CreateDate : timestamp <<default: now()>>
  *CreatorId : bigint(19)
  ModifyDate : timestamp
  ModifierId : bigint(19)
}

entity "Finance.ContractPaymentSchedule" as contractPaymentSchedule #Salmon{
  *Id : bigint(19) <<serial>>
  --
  *ContractId : bigint(19) <<FK>>
  *PaymentTitle : varchar(255)
  ProjectReleaseId : bigint(19) <<FK>>
  ScheduledPaymentDate : date
  *Amount : numeric(22,2)
  *CurrencyId : bigint(19) <<FK>>
  Description : varchar(4000)
  *IsActive : boolean <<default: true>>
  *IsDeleted : boolean <<default: false>>
  *CreateDate : timestamp <<default: now()>>
  *CreatorId : bigint(19)
  ModifyDate : timestamp
  ModifierId : bigint(19)
}

entity "Finance.ContractPaymentReceipt" as contractPaymentReceipt #Salmon{
  *Id : bigint(19) <<serial>>
  --
  *ContractPaymentScheduleId : bigint(19) <<FK>>
  PaymentDate : date
  ReceiptDocumentId : bigint(19) <<FK>>
  *Amount : numeric(22,2)
  *CurrencyId : bigint(19) <<FK>>
  Description : varchar(4000)
  *IsActive : boolean <<default: true>>
  *IsDeleted : boolean <<default: false>>
  *CreateDate : timestamp <<default: now()>>
  *CreatorId : bigint(19)
  ModifyDate : timestamp
  ModifierId : bigint(19)
}

entity "QualityControl.TestScenario" as testScenario #Silver{
  *Id : bigint(19) <<serial>>
  --
  *Code : varchar(20) <<unique>>
  *Title : varchar(255)
  TestComplexityLevelId : bigint(19) <<FK>>
  UsersAndRoles : varchar(4000)
  Steps : varchar(4000)
  Description : varchar(4000)
  *IsActive : boolean <<default: true>>
  *IsDeleted : boolean <<default: false>>
  *CreateDate : timestamp <<default: now()>>
  *CreatorId : bigint(19)
  ModifyDate : timestamp
  ModifierId : bigint(19)
}

entity "QualityControl.PrerequisiteTestScenario" as prerequisiteTestScenario #Silver{
  *Id : bigint(19) <<serial>>
  --
  *TestScenarioId : bigint(19) <<FK>>
  *PrerequisiteTestScenarioId : bigint(19) <<FK>>
  *IsActive : boolean <<default: true>>
  *IsDeleted : boolean <<default: false>>
  *CreateDate : timestamp <<default: now()>>
  *CreatorId : bigint(19)
  ModifyDate : timestamp
  ModifierId : bigint(19)
}

entity "QualityControl.TestPlan" as testPlan #Silver{
  *Id : bigint(19) <<serial>>
  --
  *Code : varchar(20) <<unique>>
  *Title : varchar(255)
  PlanningDate : date
  ProjectReleaseId : bigint(19) <<FK>>
  Description : varchar(4000)
  *IsActive : boolean <<default: true>>
  *IsDeleted : boolean <<default: false>>
  *CreateDate : timestamp <<default: now()>>
  *CreatorId : bigint(19)
  ModifyDate : timestamp
  ModifierId : bigint(19)
}

entity "QualityControl.TestPlanScenario" as testPlanScenario #Silver{
  *Id : bigint(19) <<serial>>
  --
  *TestScenarioId : bigint(19) <<FK>> <<composite unique>>
  *TestPlanId : bigint(19) <<FK>> <<composite unique>>
  *Ordering : float <<composite unique>>
  *IsActive : boolean <<default: true>>
  *IsDeleted : boolean <<default: false>>
  *CreateDate : timestamp <<default: now()>>
  *CreatorId : bigint(19)
  ModifyDate : timestamp
  ModifierId : bigint(19)
}

entity "QualityControl.TestPlanScenarioIssueCoverage" as testPlanScenarioIssueCoverage #Silver{
  *Id : bigint(19) <<serial>>
  --
  *TestPlanScenarioId : bigint(19) <<FK>> <<composite unique>>
  *IssueId : bigint(19) <<FK>> <<composite unique>>
  *IsActive : boolean <<default: true>>
  *IsDeleted : boolean <<default: false>>
  *CreateDate : timestamp <<default: now()>>
  *CreatorId : bigint(19)
  ModifyDate : timestamp
  ModifierId : bigint(19)
}

entity "QualityControl.TestResult" as testResult #Silver{
  *Id : bigint(19) <<serial>>
  --
  *TestDate : date
  *TestPlanId : bigint(19) <<FK>>
  Description : varchar(4000)
  *IsActive : boolean <<default: true>>
  *IsDeleted : boolean <<default: false>>
  *CreateDate : timestamp <<default: now()>>
  *CreatorId : bigint(19)
  ModifyDate : timestamp
  ModifierId : bigint(19)
}

entity "QualityControl.TestResultDetail" as testResultDetail #Silver{
  *Id : bigint(19) <<serial>>
  --
  TestPlanScenarioId : bigint(19) <<FK>>
  *TestApprovalId : bigint(19) <<FK>>
  *Description : varchar(4000)
  *IsActive : boolean <<default: true>>
  *IsDeleted : boolean <<default: false>>
  *CreateDate : timestamp <<default: now()>>
  *CreatorId : bigint(19)
  ModifyDate : timestamp
  ModifierId : bigint(19)
}

entity "Evaluation.Questionnaire" as questionnaire #SkyBlue{
  *Id : bigint(19) <<serial>>
  --
  *Title : varchar(200)
  *TotalScore : integer
  *AcceptableScore : integer
  *WarningScore : integer
  *DisasterScore : integer
  Description : varchar(4000)
  *IsActive : boolean <<default: true>>
  *IsDeleted : boolean <<default: false>>
  *CreateDate : timestamp <<default: now()>>
  *CreatorId : bigint(19)
  ModifyDate : timestamp
  ModifierId : bigint(19)
}

entity "Evaluation.QuestionnaireTargetDepartment" as questionnaireTargetDepartment #SkyBlue{
  *Id : bigint(19) <<serial>>
  --
  *QuestionnaireId : bigint(19) <<FK>>
  *DepoartmentId : bigint(19) <<FK>>
  *IsActive : boolean <<default: true>>
  *IsDeleted : boolean <<default: false>>
  *CreateDate : timestamp <<default: now()>>
  *CreatorId : bigint(19)
  ModifyDate : timestamp
  ModifierId : bigint(19)
}

entity "Evaluation.Question" as question #SkyBlue{
  *Id : bigint(19) <<serial>>
  --
  *QuestionnaireId : bigint(19) <<FK>>
  *Question : varchar(4000)
  *Score : integer
  *ّIsDescriptive : boolean
  *IsSingleChoice : boolean
  *IsMultiChoice : boolean
  *IsActive : boolean <<default: true>>
  *IsDeleted : boolean <<default: false>>
  *CreateDate : timestamp <<default: now()>>
  *CreatorId : bigint(19)
  ModifyDate : timestamp
  ModifierId : bigint(19)
}

entity "Evaluation.QuestionOption" as questionOption #SkyBlue{
  *Id : bigint(19) <<serial>>
  --
  *QuestionId : bigint(19) <<FK>>
  *Title : varchar(4000)
  *Score : integer
  *IsDescriptionRequired : boolean
  *IsActive : boolean <<default: true>>
  *IsDeleted : boolean <<default: false>>
  *CreateDate : timestamp <<default: now()>>
  *CreatorId : bigint(19)
  ModifyDate : timestamp
  ModifierId : bigint(19)
}

entity "Evaluation.QuestionnaireResult" as questionnaireResult #SkyBlue{
  *Id : bigint(19) <<serial>>
  --
  *QuestionnaireId : bigint(19) <<FK>>
  *ProfileId : bigint(19) <<FK>>
  *TotalScore : integer
  *IsActive : boolean <<default: true>>
  *IsDeleted : boolean <<default: false>>
  *CreateDate : timestamp <<default: now()>>
  *CreatorId : bigint(19)
  ModifyDate : timestamp
  ModifierId : bigint(19)
}

entity "Evaluation.QuestionnaireResultDetail" as questionnaireResultDetail #SkyBlue{
  *Id : bigint(19) <<serial>>
  --
  *QuestionnaireResultId : bigint(19) <<FK>>
  *QuestionId : bigint(19) <<FK>>
  Score : integer
  Description : varchar(4000)
  *IsActive : boolean <<default: true>>
  *IsDeleted : boolean <<default: false>>
  *CreateDate : timestamp <<default: now()>>
  *CreatorId : bigint(19)
  ModifyDate : timestamp
  ModifierId : bigint(19)
}

entity "Evaluation.QuestionnaireChoosedOptionResultDetail" as questionnairChoosedOptionResultDetail #SkyBlue{
  *Id : bigint(19) <<serial>>
  --
  *QuestionnaireResultDetailId : bigint(19) <<FK>>
  *ChoosedOptionId : bigint(19) <<FK>>
  Score : integer
  Description : varchar(4000)
  *IsActive : boolean <<default: true>>
  *IsDeleted : boolean <<default: false>>
  *CreateDate : timestamp <<default: now()>>
  *CreatorId : bigint(19)
  ModifyDate : timestamp
  ModifierId : bigint(19)
}

entity "Evaluation.CustomerFeedback" as customerFeedback #SkyBlue{
  *Id : bigint(19) <<serial>>
  --
  *CustomerId : bigint(19) <<FK>>
  *ProjectId : bigint(19) <<FK>>
  *FeedbackDate : date
  *FeedbackValue : numeric(2,2) <<between 1 and 10>>
  Description : varchar(4000)
  *IsActive : boolean <<default: true>>
  *IsDeleted : boolean <<default: false>>
  *CreateDate : timestamp <<default: now()>>
  *CreatorId : bigint(19)
  ModifyDate : timestamp
  ModifierId : bigint(19)
}

entity "Evaluation.StaffSatisfactionEvaluation" as staffSatisfactionEvaluation #SkyBlue{
  *Id : bigint(19) <<serial>>
  --
  *ProfileId : bigint(19) <<FK>>
  *EvalationDate : date
  *EvaluatedValue : numeric(3,2) <<between 1 and 100>>
  Description : varchar(4000)
  *IsActive : boolean <<default: true>>
  *IsDeleted : boolean <<default: false>>
  *CreateDate : timestamp <<default: now()>>
  *CreatorId : bigint(19)
  ModifyDate : timestamp
  ModifierId : bigint(19)
}

entity "Evaluation.ProjectProductivityEvaluation" as projectProductivityEvaluation #SkyBlue{
  *Id : bigint(19) <<serial>>
  --
  *ProjectId : bigint(19) <<FK>>
  *EvalationDate : datetime
  *EvaluatedValue : numeric(3,2) <<between 1 and 100>>
  Description : varchar(4000)
  *IsActive : boolean <<default: true>>
  *IsDeleted : boolean <<default: false>>
  *CreateDate : timestamp <<default: now()>>
  *CreatorId : bigint(19)
  ModifyDate : timestamp
  ModifierId : bigint(19)
}

entity "Evaluation.CustomerSatisfactionEvaluation" as customerSatisfactionEvaluation #SkyBlue{
  *Id : bigint(19) <<serial>>
  --
  *CustomerId : bigint(19) <<FK>>
  *ProjectId : bigint(19) <<FK>>
  *EvalationDate : datetime
  *EvaluatedValue : numeric(3,2) <<between 1 and 100>>
  Description : varchar(4000)
  *IsActive : boolean <<default: true>>
  *IsDeleted : boolean <<default: false>>
  *CreateDate : timestamp <<default: now()>>
  *CreatorId : bigint(19)
  ModifyDate : timestamp
  ModifierId : bigint(19)
}

documentType ||..o{ document
fileExtension ||..o{ document

form ||..o{ formPermission
permission ||..o{ formPermission
role ||..o{ rolePermission
permission ||..o{ rolePermission
groups ||..o{ groupPermission
permission ||..o{ groupPermission
profile ||..o{ profilePermission
permission ||..o{ profilePermission
profile ||..o{ profileRole
role ||..o{ profileRole
profile ||..o{ profileGroup
groups ||..o{ profileGroup

department |o..o{ department
position |o..o{ position
department ||..o{ position
position ||..o{ profile
profile ||..o{ profileEducation
educationLevel ||..o{ profileEducation
profile ||..o{ profileCertificate
profile ||..o{ profileJobExperience
profile ||..o{ attendance
profile ||..o{ leave
profile ||..o{ workMission
document ||..o{ profileEducation
contractType ||..o{ workingTimeTable

project ||..o{ issue
issueType ||..o{ issue
priority ||..o{ issue
profile ||..o{ issue
projectWorkflowStatus ||..o{ issue
projectWorkflowResolvation ||..o{ issue
project ||..o{ projectWorkflow
projectWorkflow ||..o{ projectWorkflowStatus
projectWorkflowStatus ||..o{ projectWorkflowProgress
projectWorkflowStatus ||..o{ projectWorkflowProgress
issue ||..o{ issueComment
project ||..o{ projectMeeting
profile ||..o{ meetingInvitees
projectMeeting ||..o{ meetingInvitees
department ||..o{ meetingMinutes
projectMeeting ||..o{ meetingMinutes
issue ||..o{ issueAttachment
document ||..o{ issueAttachment
document ||..o{ projectMeeting
meetingType ||..o{ projectMeeting
projectWorkflow ||..o{ workflowEligibleFileExtension
fileExtension ||..o{ workflowEligibleFileExtension
issue ||..o{ workLog
timeUnit ||..o{ workLog
issue ||..o{  issueWorkflowHistory
status ||..o{ issueWorkflowHistory
status ||..o{ issueWorkflowHistory
projectWorkflowProgress ||..o{ issueWorkflowHistory
projectWorkflowResolvation ||..o{ issueWorkflowHistory
project ||..o{ release
release ||..o{ releaseIssue
issue ||..o{ releaseIssue
project ||..o{ projectProfileMember
profile ||..o{ projectProfileMember
project ||..o{ projectGroupMember
groups ||..o{ projectGroupMember
project ||..o{ projectRoleMember
role ||..o{ projectRoleMember
project ||..o{ projectDepartmentMember
department ||..o{ projectDepartmentMember
projectWorkflow ||..o{ projectWorkflowDocumentType
documentType ||..o{ projectWorkflowDocumentType
projectWorkflow ||..o{ projectWorkflowResolvation
resolvation ||..o{ projectWorkflowResolvation

contractType ||..o{ staffContract
profile ||..o{ staffContract
staffContract ||..o{ contractSalaryItem
timeUnit ||..o{ contractSalaryItem
currency ||..o{ contractSalaryItem
supplier ||..o{ costReceipt
document ||..o{ costReceipt
currency ||..o{ costReceipt
costReceipt ||..o{ costReceiptItem
currency ||..o{ costReceiptItem
costReceiptItem ||..o{ projectDirectCostItem
project ||..o{ projectDirectCostItem
costReceiptItem ||..o{ projectDirectCostItem
costReceipt ||..o{ costPaymentReceipt
document ||..o{ costPaymentReceipt
currency ||..o{ costPaymentReceipt
staffContract ||..o{ contractDeductionItem
timeUnit ||..o{ contractDeductionItem
currency ||..o{ contractDeductionItem
document ||..o{ salaryPaymentReceipt
staffContract ||..o{ salaryPaymentReceipt
currency ||..o{ salaryPaymentReceipt
profile ||..o{ staffAdditionalPaymentReceipt
document ||..o{ staffAdditionalPaymentReceipt
contract ||..o{ contractPaymentSchedule
currency ||..o{ contractPaymentSchedule
release ||..o{ contractPaymentSchedule
contractPaymentSchedule ||..o{ contractPaymentReceipt
currency ||..o{ contractPaymentReceipt
document ||..o{ contractPaymentReceipt
customer ||..o{ contract
project ||..o{ contract
currency ||..o{ contract

testComplexityLevel |o..o{ testScenario
testScenario ||..o{ prerequisiteTestScenario
testScenario ||..o{ prerequisiteTestScenario
testScenario ||..o{ prerequisiteTestScenario
release |o..o{ testPlan
testScenario ||..o{ testPlanScenario
testPlan ||..o{ testPlanScenario
testPlanScenario ||..o{ testPlanScenarioIssueCoverage
issue ||..o{ testPlanScenarioIssueCoverage
testPlan ||..o{ testResult
testPlanScenario |o..o{ testResultDetail
testApproval ||..o{ testResultDetail

questionnaire ||..o{ questionnaireTargetDepartment
department ||..o{ questionnaireTargetDepartment
questionnaire ||..o{ question
question ||..o{ questionOption
questionnaire ||..o{ questionnaireResult
profile ||..o{ questionnaireResult
questionnaireResult ||..o{ questionnaireResultDetail
question ||..o{ questionnaireResultDetail
questionnaireResultDetail ||..o{ questionnairChoosedOptionResultDetail
questionOption ||..o{ questionnairChoosedOptionResultDetail
profile ||..o{ staffSatisfactionEvaluation
project ||..o{ projectProductivityEvaluation
customer ||..o{ customerSatisfactionEvaluation
project ||..o{ customerSatisfactionEvaluation
customer ||..o{ customerFeedback
project ||..o{ customerFeedback
@enduml