@startuml
hide circle
skinparam classBackgroundColor #Business
skinparam linetype ortho
skinparam Shadowing True
skinparam TitleFontSize 72pt

title Horizon Research Project (HRP) \n Evaluation Schema Diagram \n Version 25.6.19

entity "UserManagement.Profile" as profile #Violet{
  *Id : bigint(19) <<serial>>
  --
  *FirstName : varchar(200)
  *LastName : varchar(200)
  *Gender : enum <<male, female>>
  *StaffNumber : varchar(20) <<unique>>
  *ActiveFrom : timestamp
  ActiveTo : timestamp
  PositionId : bigint(19) <<FK>>
  Avatar : text
  Birthday : date
  PhoneNumber : varchar(20)
  MobileNumber : varchar(20)
  EmailAddress : varchar(200)
  Address : varchar(1000)
  PostalCode : varchar(20)
  LastLogInDate : timestamp
  LogInCount : integer(10) <<default: 0>>
  WrongLogInCount : integer(10) <<default: 0>>
  *Username : varchar(200) <<unique>>
  *Pass : varchar(255)
  PassSalt : varchar(50)
  *IsActive : boolean <<default: true>>
  *IsDeleted : boolean <<default: false>>
  *CreateDate : timestamp <<default: now()>>
  *CreatorId : bigint(19)
  ModifyDate : timestamp
  ModifierId : bigint(19)
}

entity "HumanResource.Department" as department #Lavender{
  *Id : integer(10) <<serial>>
  --
  *Title : varchar(50)
  *Code : varchar(20) <<unique>>
  ParentId : integer(20) <<FK>>
  Description : varchar(4000)
  *IsActive : boolean <<default: true>>
  *IsDeleted : boolean <<default: false>>
  *CreateDate : timestamp <<default: now()>>
  *CreatorId : bigint(19)
  ModifyDate : timestamp
  ModifierId : bigint(19)
}

entity "ProjectManagement.Project" as project #Orange{
  *Id : bigint(19) <<serial>>
  --
  *Code : varchar(20) <<unique>>
  *Title : varchar(200)
  Description : varchar(4000)
  StartDate : date
  EndDate : date
  *IsActive : boolean <<default: true>>
  *IsDeleted : boolean <<default: false>>
  *CreateDate : timestamp <<default: now()>>
  *CreatorId : bigint(19)
  ModifyDate : timestamp
  ModifierId : bigint(19)
}

entity "Finance.Customer" as customer #Salmon{
  *Id : bigint(19) <<serial>>
  --
  *Title : varchar(255)
  Description : varchar(4000)
  Address : varchar(4000)
  PhoneNumber : varchar(20)
  MobileNumber : varchar(20)
  Email : varchar(100)
  PostalCode : varchar(20)
  *IsActive : boolean <<default: true>>
  *IsDeleted : boolean <<default: false>>
  *CreateDate : timestamp <<default: now()>>
  *CreatorId : bigint(19)
  ModifyDate : timestamp
  ModifierId : bigint(19)
}

entity "Evaluation.Questionnaire" as questionnaire #SkyBlue{
  *Id : bigint(19) <<serial>>
  --
  *Title : varchar(200)
  *TotalScore : integer
  *AcceptableScore : integer
  *WarningScore : integer
  *DisasterScore : integer
  Description : varchar(4000)
  *IsActive : boolean <<default: true>>
  *IsDeleted : boolean <<default: false>>
  *CreateDate : timestamp <<default: now()>>
  *CreatorId : bigint(19)
  ModifyDate : timestamp
  ModifierId : bigint(19)
}

entity "Evaluation.QuestionnaireTargetDepartment" as questionnaireTargetDepartment #SkyBlue{
  *Id : bigint(19) <<serial>>
  --
  *QuestionnaireId : bigint(19) <<FK>>
  *DepoartmentId : bigint(19) <<FK>>
  *IsActive : boolean <<default: true>>
  *IsDeleted : boolean <<default: false>>
  *CreateDate : timestamp <<default: now()>>
  *CreatorId : bigint(19)
  ModifyDate : timestamp
  ModifierId : bigint(19)
}

entity "Evaluation.Question" as question #SkyBlue{
  *Id : bigint(19) <<serial>>
  --
  *QuestionnaireId : bigint(19) <<FK>>
  *Question : varchar(4000)
  *Score : integer
  *ّIsDescriptive : boolean
  *IsSingleChoice : boolean
  *IsMultiChoice : boolean
  *IsActive : boolean <<default: true>>
  *IsDeleted : boolean <<default: false>>
  *CreateDate : timestamp <<default: now()>>
  *CreatorId : bigint(19)
  ModifyDate : timestamp
  ModifierId : bigint(19)
}

entity "Evaluation.QuestionOption" as questionOption #SkyBlue{
  *Id : bigint(19) <<serial>>
  --
  *QuestionId : bigint(19) <<FK>>
  *Title : varchar(4000)
  *Score : integer
  *IsDescriptionRequired : boolean
  *IsActive : boolean <<default: true>>
  *IsDeleted : boolean <<default: false>>
  *CreateDate : timestamp <<default: now()>>
  *CreatorId : bigint(19)
  ModifyDate : timestamp
  ModifierId : bigint(19)
}

entity "Evaluation.QuestionnaireResult" as questionnaireResult #SkyBlue{
  *Id : bigint(19) <<serial>>
  --
  *QuestionnaireId : bigint(19) <<FK>>
  *ProfileId : bigint(19) <<FK>>
  *TotalScore : integer
  *IsActive : boolean <<default: true>>
  *IsDeleted : boolean <<default: false>>
  *CreateDate : timestamp <<default: now()>>
  *CreatorId : bigint(19)
  ModifyDate : timestamp
  ModifierId : bigint(19)
}

entity "Evaluation.QuestionnaireResultDetail" as questionnaireResultDetail #SkyBlue{
  *Id : bigint(19) <<serial>>
  --
  *QuestionnaireResultId : bigint(19) <<FK>>
  *QuestionId : bigint(19) <<FK>>
  Score : integer
  Description : varchar(4000)
  *IsActive : boolean <<default: true>>
  *IsDeleted : boolean <<default: false>>
  *CreateDate : timestamp <<default: now()>>
  *CreatorId : bigint(19)
  ModifyDate : timestamp
  ModifierId : bigint(19)
}

entity "Evaluation.QuestionnaireChoosedOptionResultDetail" as questionnairChoosedOptionResultDetail #SkyBlue{
  *Id : bigint(19) <<serial>>
  --
  *QuestionnaireResultDetailId : bigint(19) <<FK>>
  *ChoosedOptionId : bigint(19) <<FK>>
  Score : integer
  Description : varchar(4000)
  *IsActive : boolean <<default: true>>
  *IsDeleted : boolean <<default: false>>
  *CreateDate : timestamp <<default: now()>>
  *CreatorId : bigint(19)
  ModifyDate : timestamp
  ModifierId : bigint(19)
}

entity "Evaluation.CustomerFeedback" as customerFeedback #SkyBlue{
  *Id : bigint(19) <<serial>>
  --
  *CustomerId : bigint(19) <<FK>>
  *ProjectId : bigint(19) <<FK>>
  *FeedbackDate : date
  *FeedbackValue : numeric(2,2) <<between 1 and 10>>
  Description : varchar(4000)
  *IsActive : boolean <<default: true>>
  *IsDeleted : boolean <<default: false>>
  *CreateDate : timestamp <<default: now()>>
  *CreatorId : bigint(19)
  ModifyDate : timestamp
  ModifierId : bigint(19)
}

entity "Evaluation.StaffSatisfactionEvaluation" as staffSatisfactionEvaluation #SkyBlue{
  *Id : bigint(19) <<serial>>
  --
  *ProfileId : bigint(19) <<FK>>
  *EvalationDate : date
  *EvaluatedValue : numeric(3,2) <<between 1 and 100>>
  Description : varchar(4000)
  *IsActive : boolean <<default: true>>
  *IsDeleted : boolean <<default: false>>
  *CreateDate : timestamp <<default: now()>>
  *CreatorId : bigint(19)
  ModifyDate : timestamp
  ModifierId : bigint(19)
}

entity "Evaluation.ProjectProductivityEvaluation" as projectProductivityEvaluation #SkyBlue{
  *Id : bigint(19) <<serial>>
  --
  *ProjectId : bigint(19) <<FK>>
  *EvalationDate : datetime
  *EvaluatedValue : numeric(3,2) <<between 1 and 100>>
  Description : varchar(4000)
  *IsActive : boolean <<default: true>>
  *IsDeleted : boolean <<default: false>>
  *CreateDate : timestamp <<default: now()>>
  *CreatorId : bigint(19)
  ModifyDate : timestamp
  ModifierId : bigint(19)
}

entity "Evaluation.CustomerSatisfactionEvaluation" as customerSatisfactionEvaluation #SkyBlue{
  *Id : bigint(19) <<serial>>
  --
  *CustomerId : bigint(19) <<FK>>
  *ProjectId : bigint(19) <<FK>>
  *EvalationDate : datetime
  *EvaluatedValue : numeric(3,2) <<between 1 and 100>>
  Description : varchar(4000)
  *IsActive : boolean <<default: true>>
  *IsDeleted : boolean <<default: false>>
  *CreateDate : timestamp <<default: now()>>
  *CreatorId : bigint(19)
  ModifyDate : timestamp
  ModifierId : bigint(19)
}

questionnaire ||..o{ questionnaireTargetDepartment
department ||..o{ questionnaireTargetDepartment
questionnaire ||..o{ question
question ||..o{ questionOption
questionnaire ||..o{ questionnaireResult
profile ||..o{ questionnaireResult
questionnaireResult ||..o{ questionnaireResultDetail
question ||..o{ questionnaireResultDetail
questionnaireResultDetail ||..o{ questionnairChoosedOptionResultDetail
questionOption ||..o{ questionnairChoosedOptionResultDetail
profile ||..o{ staffSatisfactionEvaluation
project ||..o{ projectProductivityEvaluation
customer ||..o{ customerSatisfactionEvaluation
project ||..o{ customerSatisfactionEvaluation
customer ||..o{ customerFeedback
project ||..o{ customerFeedback

@enduml