@startuml
hide circle
skinparam classBackgroundColor #Business
skinparam linetype ortho
skinparam Shadowing True
skinparam TitleFontSize 72pt

title Horizon Research Project (HRP) \n Finance Schema Diagram \n Version 25.6.19

entity "Basic.ContractType" as contractType #LightPink{
  *Id : bigint(19) <<serial>>
  --
  *Title : varchar(200)
  *Code : varchar(20) <<unique>>
  Description : varchar(4000)
  *IsActive : boolean <<default: true>>
  *IsDeleted : boolean <<default: false>>
  *CreateDate : timestamp <<default: now()>>
  *CreatorId : bigint(19)
  ModifyDate : timestamp
  ModifierId : bigint(19)
}

entity "Basic.Currency" as currency #LightPink{
  *Id : bigint(19) <<serial>>
  --
  *Title : varchar(200)
  *Code : varchar(20) <<unique>>
  *Symbol : varchar(20) <<unique>>
  Description : varchar(4000)
  *IsActive : boolean <<default: true>>
  *IsDeleted : boolean <<default: false>>
  *CreateDate : timestamp <<default: now()>>
  *CreatorId : bigint(19)
  ModifyDate : timestamp
  ModifierId : bigint(19)
}

entity "Basic.TimeUnit" as timeUnit #LightPink{
  *Id : bigint(19) <<serial>>
  --
  *Title : varchar(200)
  *Code : varchar(20) <<unique>>
  BasedOnMillisecond : bigint(19)
  Description : varchar(4000)
  *IsActive : boolean <<default: true>>
  *IsDeleted : boolean <<default: false>>
  *CreateDate : timestamp <<default: now()>>
  *CreatorId : bigint(19)
  ModifyDate : timestamp
  ModifierId : bigint(19)
}

entity "ProjectManagement.Project" as project #Orange{
  *Id : bigint(19) <<serial>>
  --
  *Code : varchar(20) <<unique>>
  *Title : varchar(200)
  Description : varchar(4000)
  StartDate : date
  EndDate : date
  *IsActive : boolean <<default: true>>
  *IsDeleted : boolean <<default: false>>
  *CreateDate : timestamp <<default: now()>>
  *CreatorId : bigint(19)
  ModifyDate : timestamp
  ModifierId : bigint(19)
}

entity "ProjectManagement.ProjectRelease" as release #Orange{
  *Id : bigint(19) <<serial>>
  --
  *ProjectId : bigint(19) <<FK>>
  *VersionNumber : varchar(20) <<unique>>
  ReleaseDate : date
  Description : varchar(4000)
  *IsActive : boolean <<default: true>>
  *IsDeleted : boolean <<default: false>>
  *CreateDate : timestamp <<default: now()>>
  *CreatorId : bigint(19)
  ModifyDate : timestamp
  ModifierId : bigint(19)
}

entity "DocumentManagement.Document" as document #Gold{
  *Id : bigint(19) <<serial>>
  --
  *TableName : varchar(255)
  *TableId : bigint(19)
  *DocumentTypeId : bigint(19) <<FK>>
  *FileExtensionId : bigint(19) <<FK>>
  *FileAddress: varchar(4000)
  *IsActive : boolean <<default: true>>
  *IsDeleted : boolean <<default: false>>
  *CreateDate : timestamp <<default: now()>>
  *CreatorId : bigint(19)
  ModifyDate : timestamp
  ModifierId : bigint(19)
}

entity "UserManagement.Profile" as profile #Violet{
  *Id : bigint(19) <<serial>>
  --
  *FirstName : varchar(200)
  *LastName : varchar(200)
  *Gender : enum <<male, female>>
  *StaffNumber : varchar(20) <<unique>>
  *ActiveFrom : timestamp
  ActiveTo : timestamp
  PositionId : bigint(19) <<FK>>
  Avatar : text
  Birthday : date
  PhoneNumber : varchar(20)
  MobileNumber : varchar(20)
  EmailAddress : varchar(200)
  Address : varchar(1000)
  PostalCode : varchar(20)
  LastLogInDate : timestamp
  LogInCount : integer(10) <<default: 0>>
  WrongLogInCount : integer(10) <<default: 0>>
  *Username : varchar(200) <<unique>>
  *Pass : varchar(255)
  PassSalt : varchar(50)
  *IsActive : boolean <<default: true>>
  *IsDeleted : boolean <<default: false>>
  *CreateDate : timestamp <<default: now()>>
  *CreatorId : bigint(19)
  ModifyDate : timestamp
  ModifierId : bigint(19)
}

entity "Finance.StaffContract" as staffContract #Salmon{
  *Id : bigint(19) <<serial>>
  --
  *ProfileId : bigint(19) <<FK>>
  *ContractTypeId : bigint(19) <<FK>>
  *StartDate : date
  *EndDate : date
  *Title : varchar(200)
  Description : varchar(4000)
  AutoRenewal : boolean
  *IsActive : boolean <<default: true>>
  *IsDeleted : boolean <<default: false>>
  *CreateDate : timestamp <<default: now()>>
  *CreatorId : bigint(19)
  ModifyDate : timestamp
  ModifierId : bigint(19)
}

entity "Finance.ContractSalaryItem" as contractSalaryItem #Salmon{
  *Id : bigint(19) <<serial>>
  --
  *StaffContractId : bigint(19) <<FK>>
  *Title : varchar(200)
  *Amount : numeric(22,2)
  *CurrencyId : bigint(19) <<FK>>
  Description : varchar(4000)
  *CalculationTimeUnitId : bigint(19) <<FK>>
  *IsActive : boolean <<default: true>>
  *IsDeleted : boolean <<default: false>>
  *CreateDate : timestamp <<default: now()>>
  *CreatorId : bigint(19)
  ModifyDate : timestamp
  ModifierId : bigint(19)
}

entity "Finance.ContractDeductionItem" as contractDeductionItem #Salmon{
  *Id : bigint(19) <<serial>>
  --
  *StaffContractId : bigint(19) <<FK>>
  *Title : varchar(200)
  *CalculationType : enum <<percentage, fixedAmount>>
  DeductionPercentage : numeric(3,2) <<from 0 until 100>>
  FixedAmount : numeric(22,2)
  FixedAmountCurrencyId : bigint(19) <<FK>>
  Description : varchar(4000)
  *CalculationTimeUnitId : bigint(19) <<FK>>
  *IsActive : boolean <<default: true>>
  *IsDeleted : boolean <<default: false>>
  *CreateDate : timestamp <<default: now()>>
  *CreatorId : bigint(19)
  ModifyDate : timestamp
  ModifierId : bigint(19)
}

entity "Finance.Supplier" as supplier #Salmon{
  *Id : bigint(19) <<serial>>
  --
  *Title : varchar(255)
  Description : varchar(4000)
  Address : varchar(4000)
  PhoneNumber : varchar(20)
  MobileNumber : varchar(20)
  Email : varchar(100)
  PostalCode : varchar(20)
  *IsActive : boolean <<default: true>>
  *IsDeleted : boolean <<default: false>>
  *CreateDate : timestamp <<default: now()>>
  *CreatorId : bigint(19)
  ModifyDate : timestamp
  ModifierId : bigint(19)
}

entity "Finance.CostReceipt" as costReceipt #Salmon{
  *Id : bigint(19) <<serial>>
  --
  *SupplierId : bigint(19) <<FK>>
  *DocumentId : bigint(19) <<FK>>
  *ReceiptDate : date
  *TotalAmount : numeric(22,2)
  *CurrencyId : bigint(19) <<FK>>
  Description : varchar(4000)
  *IsActive : boolean <<default: true>>
  *IsDeleted : boolean <<default: false>>
  *CreateDate : timestamp <<default: now()>>
  *CreatorId : bigint(19)
  ModifyDate : timestamp
  ModifierId : bigint(19)
}

entity "Finance.CostReceiptItem" as costReceiptItem #Salmon{
  *Id : bigint(19) <<serial>>
  --
  *CostReceiptId : bigint(19) <<FK>>
  *ItemTitle : varchar(255)
  *UnitAmount : numeric(22,2)
  *CurrencyId : bigint(19) <<FK>>
  *Quantity : float
  Description : varchar(4000)
  *IsActive : boolean <<default: true>>
  *IsDeleted : boolean <<default: false>>
  *CreateDate : timestamp <<default: now()>>
  *CreatorId : bigint(19)
  ModifyDate : timestamp
  ModifierId : bigint(19)
}

entity "Finance.ProjectDirectCostItem" as projectDirectCostItem #Salmon{
  *Id : bigint(19) <<serial>>
  --
  *ProjectId : bigint(19) <<FK>>
  *CostReceiptItemId : bigint(19) <<FK>>
  Description : varchar(4000)
  *IsActive : boolean <<default: true>>
  *IsDeleted : boolean <<default: false>>
  *CreateDate : timestamp <<default: now()>>
  *CreatorId : bigint(19)
  ModifyDate : timestamp
  ModifierId : bigint(19)
}

entity "Finance.CostPaymentReceipt" as costPaymentReceipt #Salmon{
  *Id : bigint(19) <<serial>>
  --
  *CostReceiptId : bigint(19) <<FK>>
  *DocumentId : bigint(19) <<FK>>
  *Amount : numeric(22,2)
  *CurrencyId : bigint(19) <<FK>>
  *PaymentDate : date
  Description : varchar(4000)
  *IsActive : boolean <<default: true>>
  *IsDeleted : boolean <<default: false>>
  *CreateDate : timestamp <<default: now()>>
  *CreatorId : bigint(19)
  ModifyDate : timestamp
  ModifierId : bigint(19)
}

entity "Finance.SalaryPaymentReceipt" as salaryPaymentReceipt #Salmon{
  *Id : bigint(19) <<serial>>
  --
  *StaffContractId : bigint(19) <<FK>>
  *DocumentId : bigint(19) <<FK>>
  *Amount : numeric(22,2)
  *CurrencyId : bigint(19) <<FK>>
  *PaymentDate : date
  Description : varchar(4000)
  *IsActive : boolean <<default: true>>
  *IsDeleted : boolean <<default: false>>
  *CreateDate : timestamp <<default: now()>>
  *CreatorId : bigint(19)
  ModifyDate : timestamp
  ModifierId : bigint(19)
}

entity "Finance.StaffAdditionalPaymentReceipt" as staffAdditionalPaymentReceipt #Salmon{
  *Id : bigint(19) <<serial>>
  --
  *ProfileId : bigint(19) <<FK>>
  *DocumentId : bigint(19) <<FK>>
  *Amount : numeric(22,2)
  *CurrencyId : bigint(19) <<FK>>
  *PaymentDate : date
  Description : varchar(4000)
  *IsActive : boolean <<default: true>>
  *IsDeleted : boolean <<default: false>>
  *CreateDate : timestamp <<default: now()>>
  *CreatorId : bigint(19)
  ModifyDate : timestamp
  ModifierId : bigint(19)
}

entity "Finance.Customer" as customer #Salmon{
  *Id : bigint(19) <<serial>>
  --
  *Title : varchar(255)
  Description : varchar(4000)
  Address : varchar(4000)
  PhoneNumber : varchar(20)
  MobileNumber : varchar(20)
  Email : varchar(100)
  PostalCode : varchar(20)
  *IsActive : boolean <<default: true>>
  *IsDeleted : boolean <<default: false>>
  *CreateDate : timestamp <<default: now()>>
  *CreatorId : bigint(19)
  ModifyDate : timestamp
  ModifierId : bigint(19)
}

entity "Finance.Contract" as contract #Salmon{
  *Id : bigint(19) <<serial>>
  --
  *CustomerId : bigint(19) <<FK>>
  *ProjectId : bigint(19) <<FK>>
  StartDate : date
  ScheduledEndDate : date
  RealEndDate : date
  IsDevelopmentContract : boolean
  IsSupportContract : boolean
  *TotalAmount : numeric(22,2)
  *CurrencyId : bigint(19) <<FK>>
  Description : varchar(4000)
  *IsActive : boolean <<default: true>>
  *IsDeleted : boolean <<default: false>>
  *CreateDate : timestamp <<default: now()>>
  *CreatorId : bigint(19)
  ModifyDate : timestamp
  ModifierId : bigint(19)
}

entity "Finance.ContractPaymentSchedule" as contractPaymentSchedule #Salmon{
  *Id : bigint(19) <<serial>>
  --
  *ContractId : bigint(19) <<FK>>
  *PaymentTitle : varchar(255)
  ProjectReleaseId : bigint(19) <<FK>>
  ScheduledPaymentDate : date
  *Amount : numeric(22,2)
  *CurrencyId : bigint(19) <<FK>>
  Description : varchar(4000)
  *IsActive : boolean <<default: true>>
  *IsDeleted : boolean <<default: false>>
  *CreateDate : timestamp <<default: now()>>
  *CreatorId : bigint(19)
  ModifyDate : timestamp
  ModifierId : bigint(19)
}

entity "Finance.ContractPaymentReceipt" as contractPaymentReceipt #Salmon{
  *Id : bigint(19) <<serial>>
  --
  *ContractPaymentScheduleId : bigint(19) <<FK>>
  PaymentDate : date
  ReceiptDocumentId : bigint(19) <<FK>>
  *Amount : numeric(22,2)
  *CurrencyId : bigint(19) <<FK>>
  Description : varchar(4000)
  *IsActive : boolean <<default: true>>
  *IsDeleted : boolean <<default: false>>
  *CreateDate : timestamp <<default: now()>>
  *CreatorId : bigint(19)
  ModifyDate : timestamp
  ModifierId : bigint(19)
}



contractType ||..o{ staffContract
profile ||..o{ staffContract
staffContract ||..o{ contractSalaryItem
timeUnit ||..o{ contractSalaryItem
currency ||..o{ contractSalaryItem
supplier ||..o{ costReceipt
document ||..o{ costReceipt
currency ||..o{ costReceipt
costReceipt ||..o{ costReceiptItem
currency ||..o{ costReceiptItem
costReceiptItem ||..o{ projectDirectCostItem
project ||..o{ projectDirectCostItem
costReceiptItem ||..o{ projectDirectCostItem
costReceipt ||..o{ costPaymentReceipt
document ||..o{ costPaymentReceipt
currency ||..o{ costPaymentReceipt
staffContract ||..o{ contractDeductionItem
timeUnit ||..o{ contractDeductionItem
currency ||..o{ contractDeductionItem
document ||..o{ salaryPaymentReceipt
staffContract ||..o{ salaryPaymentReceipt
currency ||..o{ salaryPaymentReceipt
profile ||..o{ staffAdditionalPaymentReceipt
document ||..o{ staffAdditionalPaymentReceipt
contract ||..o{ contractPaymentSchedule
currency ||..o{ contractPaymentSchedule
release ||..o{ contractPaymentSchedule
contractPaymentSchedule ||..o{ contractPaymentReceipt
currency ||..o{ contractPaymentReceipt
document ||..o{ contractPaymentReceipt
customer ||..o{ contract
project ||..o{ contract
currency ||..o{ contract

@enduml